<mxfile host="www.draw.io" modified="2020-03-05T07:33:28.081Z" agent="Mozilla/5.0 (Windows NT 10.0; Win64; x64; rv:74.0) Gecko/20100101 Firefox/74.0" etag="0QAhoeS842N_J8cwPXNG" version="12.7.9" type="github">
  <diagram id="WiVYyASMApcOHzH862Ry" name="Page-1">
    <mxGraphModel dx="1108" dy="457" grid="1" gridSize="10" guides="1" tooltips="1" connect="1" arrows="1" fold="1" page="1" pageScale="1" pageWidth="827" pageHeight="1169" math="0" shadow="0">
      <root>
        <mxCell id="0" />
        <mxCell id="1" parent="0" />
        <mxCell id="VKGSj6JhafN2UkIxccSY-3" value="" style="shape=image;html=1;verticalAlign=top;verticalLabelPosition=bottom;labelBackgroundColor=#ffffff;imageAspect=0;aspect=fixed;image=https://cdn4.iconfinder.com/data/icons/modern-education-and-knowledge-power-1/512/507_internet__school__web__education-256.png;" parent="1" vertex="1">
          <mxGeometry x="130" y="60" width="220" height="220" as="geometry" />
        </mxCell>
        <mxCell id="VKGSj6JhafN2UkIxccSY-4" value="" style="pointerEvents=1;shadow=0;dashed=0;html=1;strokeColor=none;fillColor=#505050;labelPosition=center;verticalLabelPosition=bottom;verticalAlign=top;outlineConnect=0;align=center;shape=mxgraph.office.concepts.book_journal;" parent="1" vertex="1">
          <mxGeometry x="390" y="180" width="240" height="250" as="geometry" />
        </mxCell>
        <mxCell id="VKGSj6JhafN2UkIxccSY-5" value="" style="shape=image;html=1;verticalAlign=top;verticalLabelPosition=bottom;labelBackgroundColor=#ffffff;imageAspect=0;aspect=fixed;image=https://cdn2.iconfinder.com/data/icons/picol-vector/32/book_text-128.png" parent="1" vertex="1">
          <mxGeometry x="100" y="310" width="128" height="128" as="geometry" />
        </mxCell>
        <mxCell id="VKGSj6JhafN2UkIxccSY-6" value="" style="shape=image;html=1;verticalAlign=top;verticalLabelPosition=bottom;labelBackgroundColor=#ffffff;imageAspect=0;aspect=fixed;image=https://cdn1.iconfinder.com/data/icons/education-filled-outline-8/64/Education-Filled_23-256.png;" parent="1" vertex="1">
          <mxGeometry x="500" y="10" width="248" height="248" as="geometry" />
        </mxCell>
        <mxCell id="jBt68wYeYOiQFLOaobZZ-5" value="" style="shape=image;html=1;verticalAlign=top;verticalLabelPosition=bottom;labelBackgroundColor=#ffffff;imageAspect=0;aspect=fixed;image=https://cdn4.iconfinder.com/data/icons/creative-process-16/512/Web_Developmen-512.png;" vertex="1" parent="1">
          <mxGeometry x="200" y="510" width="520" height="520" as="geometry" />
        </mxCell>
        <mxCell id="jBt68wYeYOiQFLOaobZZ-6" value="" style="shape=image;html=1;verticalAlign=top;verticalLabelPosition=bottom;labelBackgroundColor=#ffffff;imageAspect=0;aspect=fixed;image=https://cdn4.iconfinder.com/data/icons/world-flags-12/512/Untitled-2-19-128.png" vertex="1" parent="1">
          <mxGeometry x="50" y="630" width="128" height="128" as="geometry" />
        </mxCell>
      </root>
    </mxGraphModel>
  </diagram>
</mxfile>
